<?xml version="1.0" encoding="iso-8859-1"?>
<!-- Generator: Adobe Illustrator 18.0.0, SVG Export Plug-In . SVG Version: 6.00 Build 0)  -->
<!DOCTYPE svg PUBLIC "-//W3C//DTD SVG 1.1//EN" "http://www.w3.org/Graphics/SVG/1.1/DTD/svg11.dtd">
<svg version="1.1" id="Capa_1" xmlns="http://www.w3.org/2000/svg" xmlns:xlink="http://www.w3.org/1999/xlink" x="0px" y="0px"
	 viewBox="0 0 494.118 494.118" style="enable-background:new 0 0 494.118 494.118; background-color: white" xml:space="preserve">
<g id="XMLID_534_">
	<path id="XMLID_535_" d="M210.432,208.776c-13.396,11.215-32.541,11.632-46.355,1.062c-11.676-8.92-16.426-23.379-13.708-36.869
		l-33.341,3.101l80.098-20.342c10.427-2.647,16.734-13.251,14.089-23.687c-2.646-10.451-13.253-16.732-23.696-14.096l-80.1,20.342
		l36.316-15.555c-4.098-4.551-7.107-10.063-8.559-16.227l-63.328,41.971c-7.669,4.978-11.295,16.163-5.984,25.718
		c4.352,7.469,12.837,11.604,21.613,9.381l26.125-6.635c0,21.267-0.146,130.41-0.146,293.046c0,13.324,10.806,24.131,24.132,24.131
		c13.326,0,24.132-10.807,24.132-24.131v-160.37h17.64v160.37c0,7.315-2.049,14.077-5.348,20.06
		c3.734,2.358,7.885,4.072,12.618,4.072c13.326,0,24.131-10.807,24.131-24.131C210.76,342.958,210.432,221.939,210.432,208.776z"/>
	<path id="XMLID_536_" d="M136.553,84.986c5.277-14.078,18.747-24.15,34.664-24.15h34.594c1.521-4.587,2.538-9.409,2.538-14.505
		C208.349,20.741,187.607,0,162.007,0c-25.581,0-46.32,20.741-46.32,46.332C115.687,62.503,123.99,76.701,136.553,84.986z"/>
	<path id="XMLID_537_" d="M230.522,184.102c0.181,0,0.381,0.075,0.561,0.075c3.5,0,6.98-0.935,10.081-2.811l68.569-41.454
		c2.12-1.279,3.806-2.965,5.237-4.814h-46.975L230.522,184.102z"/>
	<path id="XMLID_538_" d="M421.485,88.684c-27.576,0-50.545,0-79.427,0c-3.227-5.448-8.92-9.282-15.719-9.282
		c-97.975,0-8.556,0-68.276,0c0-55.57,0,36.722,0-24.367c0-5.132-4.154-9.282-9.283-9.282c-5.131,0-9.283,4.15-9.283,9.282
		c0,20.233,0-12.102,0,24.367c-31.02,0-38.654,0-68.279,0c-10.26,0-18.564,8.313-18.564,18.565c0,7.288,4.297,13.452,10.408,16.479
		l21.266-9.101c17.204-7.37,36.406,1.504,43.168,17.287c8.666,20.187-4.534,43.448-27.176,45.696l-29.409,2.729
		c-4.675,7.978-3.082,18.275,4.442,24.04c8.195,6.264,19.835,4.632,26.018-3.472l57.453-75.094c85.211,0-34.428,0,67.517,0
		c6.799,0,12.491-3.834,15.719-9.283c28.281,0,52.306,0,79.427,0c5.132,0,9.284-4.151,9.284-9.282
		C430.769,92.836,426.616,88.684,421.485,88.684z"/>
</g>
<g>
</g>
<g>
</g>
<g>
</g>
<g>
</g>
<g>
</g>
<g>
</g>
<g>
</g>
<g>
</g>
<g>
</g>
<g>
</g>
<g>
</g>
<g>
</g>
<g>
</g>
<g>
</g>
<g>
</g>
</svg>
